<svg width="872" height="872" viewBox="0 0 872 872" fill="none" xmlns="http://www.w3.org/2000/svg">
<rect x="23" y="23" width="826" height="826" rx="35" stroke="#7FAE85" stroke-width="46" stroke-dasharray="497 13"/>
<path d="M678.681 129.027C690.601 129.2 702.414 127.413 714.334 127.16C714.334 147.667 714.321 168.173 714.334 188.667C694.334 188.947 674.32 189.093 654.32 189C654.16 177.16 655.534 165.294 656.107 153.547C663.841 145.574 671.014 137.08 678.681 129.027Z" fill="#57A761"/>
<path d="M577.121 134.841C596.734 134.214 616.268 132.294 635.868 131.561C635.521 136.401 635.534 141.254 635.174 146.081C635.241 148.147 633.281 149.334 632.094 150.734C613.188 169.134 594.921 188.174 575.921 206.454C576.228 182.587 577.014 158.707 577.121 134.841Z" fill="#7AC784"/>
<path d="M507.84 139.893C516.694 139.92 525.44 138.133 534.294 138.293C533.627 175.48 536.547 212.667 535.387 249.813C518.974 268.973 501.867 287.533 484.654 305.987C477.547 312.587 472.04 320.747 464.56 326.947C464.147 265.44 464.32 203.933 464.44 142.44C471.267 142.213 478.134 142.68 484.934 141.76C492.534 140.667 500.267 141.36 507.84 139.893Z" fill="#7AC784"/>
<path d="M380.907 147.787C390.76 148 400.467 145.92 410.32 146.08C409.787 179.96 412.04 213.8 411.667 247.68C411.24 292.947 413.747 338.2 412.88 383.48C385.04 417.28 355.72 449.96 326.64 482.733C326.427 455.08 326.547 427.4 325.307 399.773C324.667 383.28 325.36 366.773 324.64 350.293C323.973 332.973 323.493 315.653 323.667 298.333C323.253 279.667 322.2 261.013 322.333 242.333C322.6 220.987 321 199.68 321 178.333C321.027 169.48 320.987 160.627 320.773 151.787C330.68 152.12 340.44 150.053 350.347 150.24C360.493 148.907 370.76 149.227 380.907 147.787Z" fill="#7AC784"/>
<path d="M246.36 157C252.147 157.027 257.867 156 263.641 155.547C263.014 178.72 265.201 201.827 265.001 225C264.801 241.454 266.694 257.867 266.334 274.334C265.947 292.134 267.774 309.88 267.667 327.667C267.387 347.24 269.374 366.76 269.001 386.334C268.614 404.134 270.601 421.88 270.334 439.68C270.027 458.8 271.961 477.867 271.667 497C271.281 512.04 272.681 527.054 272.801 542.094C251.347 570.64 228.52 598.294 206.494 626.48C175.16 665.494 144.321 704.894 112.974 743.894C112.587 719.974 111.294 695.96 112.001 672.094C133.814 635.2 156.454 598.774 178.227 561.854C179.507 559.574 178.76 556.84 178.867 554.374C178.014 534.8 178.64 515.2 178.04 495.627C177.48 479.64 176.881 463.654 177.001 447.667C177.16 433 176.174 418.36 175.961 403.694C175.307 385.934 176.081 368.147 175.227 350.387C174.521 333.934 174.187 317.48 174.334 301.014C174.241 281.894 172.84 262.8 173 243.667C173.267 216.494 171.374 189.347 171.694 162.174C188.494 160.147 205.454 160.054 222.294 158.374C230.361 158.787 238.294 156.88 246.36 157Z" fill="#7AC784"/>
<path d="M612.121 226.4C646.414 226.44 680.694 225.12 715.001 225.533C714.894 249.8 715.481 274.067 715.667 298.32C679.187 298.453 642.694 297.96 606.227 298.933C586.147 299.44 566.054 298.933 545.987 299.56C552.854 290.867 561.027 283.36 568.107 274.84C579.401 263 590.227 250.72 601.361 238.72C605.067 234.733 609.334 231.147 612.121 226.4Z" fill="#57A761"/>
<path d="M611.667 342.333C646.334 342.387 681.001 341.133 715.667 341C715.641 368.413 715.707 395.827 715.641 423.24C684.361 424 653.067 423.44 621.787 424.307C585.561 425.56 549.307 424.533 513.067 425.667C488.841 426.6 464.601 426.067 440.374 426.827C450.561 413.64 462.294 401.76 472.907 388.92C486.481 373.653 499.894 358.227 513.427 342.92C546.161 342.52 578.921 342.227 611.667 342.333Z" fill="#57A761"/>
<path d="M618.334 474.36C651.201 474.56 684.067 473.587 716.934 473.267C717.081 501.213 716.601 529.187 718.241 557.093C701.401 558.6 684.481 557.96 667.627 559.267C659.174 559.947 650.707 559.48 642.254 559.76C622.321 561.493 602.307 560.733 582.361 562.24C564.561 561.973 546.787 563.333 529.001 563.667C511.641 563.213 494.347 565.387 477.001 565C461.441 565.347 445.894 566.667 430.321 566.347C412.987 567.013 395.654 567.84 378.307 567.76C359.521 568.907 340.721 569.027 321.907 569.253C348.507 538.693 375.134 508.173 401.574 477.48C402.094 477.373 403.134 477.133 403.654 477.027C436.107 476.947 468.547 475.813 501.001 475.68C540.121 475.813 579.214 474.653 618.334 474.36Z" fill="#57A761"/>
<path d="M719.588 604.88C719.588 604.88 720.802 656.318 720.508 682C584.021 682 445.501 687.627 316.001 689C304.501 704.5 260.501 748.5 253.501 758C229.834 758.427 195.168 757.8 171.501 758C204.888 718.773 266.001 650.5 298.001 610.6C435.501 610.6 719.588 604.88 719.588 604.88Z" fill="#57A761"/>
</svg>
