<svg width="252" height="249" viewBox="0 0 252 249" fill="none" xmlns="http://www.w3.org/2000/svg">
<g clip-path="url(#clip0_17441_16)">
<path d="M89.1098 15.5513C101.87 2.64461 121.536 -2.96872 139.163 1.53795C162.323 6.81795 180.123 29.0179 180.136 52.7913C196.283 52.8046 212.43 52.778 228.576 52.8046C236.95 52.6446 245.123 57.6579 248.883 65.1246C251.59 70.1513 251.603 76.0046 251.496 81.5513C251.43 129.578 251.55 177.591 251.443 225.618C251.456 234.578 245.83 243.271 237.51 246.685C231.736 249.271 225.27 248.511 219.123 248.591C154.723 248.618 90.3231 248.551 25.9097 248.631C12.6697 250.178 -0.530253 239.071 0.0164139 225.485C0.0430806 175.311 -0.0235864 125.125 0.0564136 74.9513C0.0830803 63.4046 10.1897 52.9513 21.7897 52.8446C38.8964 52.7246 56.0031 52.818 73.1097 52.8046C73.4297 38.938 79.1231 25.2313 89.1098 15.5513ZM85.2564 52.2846C84.8697 54.2979 86.0564 57.1779 88.5364 56.6979C91.7498 57.1379 91.8431 53.2579 91.9631 51.0579C92.7098 35.5646 105.243 21.7379 120.51 19.2446C136.67 15.9913 154.456 26.1646 159.31 42.0046C157.136 42.5646 154.976 43.1246 152.803 43.6846C157.696 48.5646 162.496 53.5379 167.403 58.418C169.27 51.7646 171.003 45.0713 172.963 38.4579C170.643 39.0579 168.336 39.6579 166.03 40.2046C159.816 21.7113 139.763 9.15128 120.403 12.5513C101.136 15.1113 85.4431 32.8446 85.2564 52.2846ZM103.75 52.778C119.003 52.8046 134.256 52.8046 149.496 52.778C149.243 39.578 136.15 28.4579 123.083 30.9779C112.47 32.4846 104.216 42.178 103.75 52.778ZM22.4964 67.9113C18.8697 69.9246 16.6964 73.8313 16.1631 77.8713C15.0831 85.2713 15.4964 92.778 15.5231 100.231C15.8031 105.205 15.8697 110.778 19.2964 114.778C24.7497 121.325 36.8697 120.125 40.4564 112.191C43.2564 105.511 42.3097 98.0446 42.5497 90.9779C42.2964 84.5113 43.1231 77.418 39.5897 71.658C36.0564 66.1246 28.0564 65.0179 22.4964 67.9113ZM49.6297 66.7913C49.6031 83.9779 49.6297 101.165 49.6164 118.351C52.0964 118.351 54.5764 118.351 57.0697 118.365C57.3764 108.071 56.4031 97.6846 57.5764 87.4446C61.9497 97.6446 65.7897 108.071 70.0031 118.338C72.2164 118.338 74.4431 118.338 76.6697 118.351C76.6697 101.178 76.6964 84.018 76.6697 66.8446C74.1764 66.8446 71.6964 66.8446 69.2164 66.8446C69.0831 76.9913 69.2831 87.1513 69.1097 97.3113C68.8297 97.0179 68.2564 96.4313 67.9764 96.138C63.9364 86.5513 60.1897 76.8313 56.4831 67.0979C54.2031 66.9246 51.9231 66.8313 49.6297 66.7913ZM84.7364 67.018C84.7364 84.138 84.7098 101.245 84.7498 118.365C91.8298 118.298 98.9231 118.431 106.016 118.271C105.99 116.098 105.976 113.911 105.963 111.738C101.376 111.711 96.7898 111.805 92.2164 111.565C92.2431 106.338 92.2031 101.111 92.2564 95.8713C96.1631 95.8179 100.07 95.8046 103.963 95.858C103.963 93.618 103.95 91.378 103.963 89.1513C100.03 89.218 96.1098 89.2579 92.1898 88.9779C92.2564 83.9379 92.2298 78.898 92.2164 73.8713C96.7098 73.6446 101.216 73.6846 105.723 73.778C105.87 71.5646 105.99 69.3646 106.083 67.1646C98.9898 66.3646 91.8564 67.2046 84.7364 67.018ZM125.523 66.8313C125.523 69.1246 125.523 71.418 125.523 73.7113C128.39 73.7113 131.256 73.7379 134.136 73.7913C134.203 88.6446 134.15 103.498 134.163 118.351C136.67 118.351 139.163 118.338 141.67 118.351C141.67 103.511 141.656 88.6713 141.683 73.8446C144.59 73.738 147.51 73.7113 150.43 73.6979C150.416 71.4179 150.416 69.1246 150.416 66.8446C142.11 66.8046 133.816 66.9113 125.523 66.8313ZM154.47 66.8313C157.616 84.0313 160.923 101.191 164.19 118.351C166.83 118.351 169.456 118.365 172.096 118.391C174.576 105.218 177.176 92.0846 179.363 78.8713C180.016 80.5913 180.79 82.2979 181.163 84.1246C183.31 95.538 185.403 106.978 187.643 118.378C190.283 118.365 192.91 118.351 195.55 118.351C198.79 101.191 202.07 84.0313 205.203 66.8446C202.47 66.8446 199.75 66.8446 197.03 66.8446C195.016 79.9246 194.296 93.2313 191.43 106.151C188.603 93.1246 186.63 79.9246 184.016 66.8446C181.23 66.8446 178.456 66.8446 175.67 66.8446C173.11 79.978 170.99 93.2046 168.376 106.325C165.403 93.378 164.71 79.9913 162.656 66.8713C159.923 66.858 157.19 66.8446 154.47 66.8313ZM215.79 67.8846C212.443 69.7246 210.23 73.2046 209.59 76.9246C208.243 84.1779 208.856 91.6046 208.75 98.938C208.936 104.098 208.883 109.765 212.016 114.138C215.803 119.445 223.83 120.258 229.243 117.151C234.15 114.218 235.443 108.151 235.603 102.871C235.803 94.8446 236.07 86.7779 235.27 78.7779C234.816 73.8446 231.99 68.8046 227.083 67.138C223.43 66.0446 219.203 66.0313 215.79 67.8846ZM11.3631 133.125C11.3631 137.591 11.3631 142.045 11.3764 146.498C16.8564 146.471 22.3497 146.471 27.8297 146.498C28.1364 174.911 27.8831 203.325 27.9631 231.738C32.9364 231.725 37.8964 231.725 42.8697 231.738C42.9231 203.351 42.8431 174.951 42.9097 146.551C48.4564 146.431 54.0031 146.485 59.5631 146.498C59.5631 142.045 59.5631 137.578 59.5631 133.125C43.4964 133.138 27.4297 133.125 11.3631 133.125ZM69.0431 231.751C74.0031 231.725 78.9631 231.725 83.9231 231.738C83.9631 218.191 83.8031 204.645 84.0031 191.085C87.1231 191.058 90.2431 191.058 93.3631 191.111C97.7364 204.631 102.003 218.191 106.323 231.738C111.523 231.725 116.71 231.738 121.896 231.725C117.07 217.085 111.896 202.551 107.336 187.831C113.91 184.445 117.616 177.418 118.296 170.258C119.216 161.205 119.336 151.431 115.163 143.111C111.95 136.711 104.683 133.645 97.8431 133.311C88.2431 132.898 78.6431 133.245 69.0431 133.111C69.0164 165.991 69.0297 198.871 69.0431 231.751ZM132.296 133.125C132.296 165.991 132.31 198.858 132.296 231.738C137.296 231.738 142.31 231.738 147.31 231.711C147.31 198.858 147.31 166.005 147.31 133.151C142.31 133.111 137.31 133.125 132.296 133.125ZM160.763 133.125C160.776 166.005 160.736 198.871 160.776 231.751C165.736 231.725 170.683 231.725 175.643 231.738C175.763 218.791 175.323 205.818 175.87 192.871C184.336 192.791 193.75 193.991 201.15 188.925C207.803 184.338 209.87 175.805 210.336 168.191C210.723 159.525 210.71 150.205 206.216 142.498C202.616 136.338 195.336 133.471 188.483 133.245C179.243 132.978 170.003 133.205 160.763 133.125ZM222.723 133.125C222.736 156.711 222.71 180.298 222.736 203.885C227.403 203.831 232.083 203.831 236.763 203.858C236.763 180.285 236.75 156.698 236.763 133.125C232.083 133.125 227.403 133.125 222.723 133.125ZM225.243 214.525C219.456 217.445 218.603 226.418 223.883 230.271C229.096 234.698 238.31 231.311 238.976 224.378C240.576 217.045 231.696 210.445 225.243 214.525Z" fill="black"/>
<path d="M26.1364 73.9114C29.0431 71.818 33.6297 73.6714 34.1097 77.2714C35.7231 85.7247 34.9364 94.4447 34.8697 103.005C34.5631 106.338 34.2964 111.618 30.0164 112.151C27.0031 112.898 24.3364 110.618 23.8964 107.725C22.4431 100.005 23.0164 92.0714 23.0831 84.2714C23.4831 80.7647 23.1231 76.3647 26.1364 73.9114Z" fill="black"/>
<path d="M219.497 73.8179C222.03 72.1246 226.203 73.2712 227.03 76.3646C228.803 81.9246 228.15 87.8846 228.323 93.6312C228.15 98.8712 228.723 104.351 226.857 109.365C225.47 113.378 218.657 113.151 217.55 109.018C215.43 101.445 216.443 93.4179 216.27 85.6579C216.67 81.6846 216.043 76.5912 219.497 73.8179Z" fill="black"/>
<path d="M83.9898 146.538C89.9498 146.978 98.4165 144.405 101.976 150.832C104.736 157.618 104.576 165.632 102.336 172.565C99.2165 179.672 90.0965 177.392 83.9631 177.432C83.8965 167.138 83.8564 156.832 83.9898 146.538Z" fill="black"/>
<path d="M175.83 179.605C175.496 168.565 175.47 157.485 175.843 146.445C180.923 146.925 186.643 145.298 191.23 148.098C195.91 151.991 195.496 158.778 195.603 164.298C195.456 169.418 195.163 176.218 189.843 178.765C185.336 180.271 180.483 179.365 175.83 179.605Z" fill="black"/>
<path d="M89.7202 52.347C89.9069 32.907 105.6 15.1736 124.867 12.6136C144.227 9.21362 164.28 21.7736 170.494 40.267C172.8 39.7203 175.107 39.1203 177.427 38.5203C175.467 45.1336 173.734 51.827 171.867 58.4803C166.96 53.6003 162.16 48.627 157.267 43.747C159.44 43.187 161.6 42.627 163.774 42.067C158.92 26.227 141.134 16.0536 124.974 19.307C109.707 21.8003 97.1736 35.627 96.4269 51.1203C96.3069 53.3203 96.2136 57.2003 93.0002 56.7603C90.5202 57.2403 89.3336 54.3603 89.7202 52.347Z" fill="white"/>
<path d="M26.9602 67.9738C32.5202 65.0805 40.5202 66.1872 44.0535 71.7205C47.5869 77.4805 46.7602 84.5738 47.0135 91.0405C46.7735 98.1072 47.7202 105.574 44.9202 112.254C41.3335 120.187 29.2135 121.387 23.7602 114.841C20.3335 110.841 20.2669 105.267 19.9869 100.294C19.9602 92.8405 19.5469 85.3338 20.6269 77.9338C21.1602 73.8938 23.3335 69.9872 26.9602 67.9738ZM30.6002 73.9738C27.5869 76.4272 27.9469 80.8272 27.5469 84.3338C27.4802 92.1338 26.9069 100.067 28.3602 107.787C28.8002 110.681 31.4669 112.961 34.4802 112.214C38.7602 111.681 39.0269 106.401 39.3335 103.067C39.4002 94.5072 40.1869 85.7872 38.5735 77.3338C38.0935 73.7338 33.5069 71.8805 30.6002 73.9738Z" fill="white"/>
<path d="M54.0934 66.8535C56.3867 66.8935 58.6667 66.9868 60.9467 67.1602C64.6534 76.8935 68.4001 86.6135 72.4401 96.2002C72.7201 96.4935 73.2934 97.0802 73.5734 97.3735C73.7467 87.2135 73.5467 77.0535 73.6801 66.9069C76.1601 66.9069 78.6401 66.9069 81.1334 66.9069C81.1601 84.0802 81.1334 101.24 81.1334 118.414C78.9067 118.4 76.6801 118.4 74.4667 118.4C70.2534 108.134 66.4134 97.7068 62.0401 87.5068C60.8667 97.7468 61.8401 108.134 61.5334 118.427C59.0401 118.414 56.5601 118.414 54.0801 118.414C54.0934 101.227 54.0667 84.0402 54.0934 66.8535Z" fill="white"/>
<path d="M89.2001 67.0804C96.3201 67.2671 103.453 66.4271 110.547 67.2271C110.453 69.4271 110.333 71.6271 110.187 73.8404C105.68 73.7471 101.173 73.7071 96.6801 73.9338C96.6934 78.9604 96.7201 84.0004 96.6534 89.0404C100.573 89.3204 104.493 89.2804 108.427 89.2138C108.413 91.4404 108.427 93.6804 108.427 95.9204C104.533 95.8671 100.627 95.8804 96.7201 95.9338C96.6668 101.174 96.7068 106.4 96.6801 111.627C101.253 111.867 105.84 111.774 110.427 111.8C110.44 113.974 110.453 116.16 110.48 118.334C103.387 118.494 96.2934 118.36 89.2134 118.427C89.1734 101.307 89.2001 84.2004 89.2001 67.0804Z" fill="white"/>
<path d="M129.987 66.8936C138.28 66.9736 146.573 66.8669 154.88 66.9069C154.88 69.1869 154.88 71.4802 154.893 73.7602C151.973 73.7736 149.053 73.8002 146.147 73.9069C146.12 88.7336 146.133 103.574 146.133 118.414C143.627 118.4 141.133 118.414 138.627 118.414C138.613 103.56 138.667 88.7069 138.6 73.8536C135.72 73.8002 132.853 73.7736 129.987 73.7736C129.987 71.4802 129.987 69.1869 129.987 66.8936Z" fill="white"/>
<path d="M158.933 66.8936C161.653 66.9069 164.386 66.9202 167.12 66.9336C169.173 80.0536 169.866 93.4402 172.84 106.387C175.453 93.2669 177.573 80.0402 180.133 66.9069C182.92 66.9069 185.693 66.9069 188.48 66.9069C191.093 79.9869 193.066 93.1869 195.893 106.214C198.76 93.2936 199.48 79.9869 201.493 66.9069C204.213 66.9069 206.933 66.9069 209.666 66.9069C206.533 84.0936 203.253 101.254 200.013 118.414C197.373 118.414 194.746 118.427 192.106 118.44C189.866 107.04 187.773 95.6002 185.626 84.1869C185.253 82.3602 184.48 80.6536 183.826 78.9336C181.64 92.1469 179.04 105.28 176.56 118.454C173.92 118.427 171.293 118.414 168.653 118.414C165.386 101.254 162.08 84.0936 158.933 66.8936Z" fill="white"/>
<path d="M220.253 67.9468C223.667 66.0935 227.893 66.1068 231.547 67.2001C236.453 68.8668 239.28 73.9068 239.733 78.8401C240.533 86.8401 240.267 94.9068 240.067 102.933C239.907 108.213 238.613 114.28 233.707 117.213C228.293 120.32 220.267 119.507 216.48 114.2C213.347 109.827 213.4 104.16 213.213 99.0001C213.32 91.6668 212.707 84.2401 214.053 76.9868C214.693 73.2668 216.907 69.7868 220.253 67.9468ZM223.96 73.8801C220.507 76.6535 221.133 81.7468 220.733 85.7201C220.907 93.4801 219.893 101.507 222.013 109.08C223.12 113.213 229.933 113.44 231.32 109.427C233.187 104.413 232.613 98.9335 232.787 93.6935C232.613 87.9468 233.267 81.9868 231.493 76.4268C230.667 73.3335 226.493 72.1868 223.96 73.8801Z" fill="white"/>
<path d="M15.8267 133.187C31.8933 133.187 47.96 133.2 64.0267 133.187C64.0267 137.64 64.0267 142.107 64.0267 146.56C58.4667 146.547 52.92 146.493 47.3733 146.613C47.3067 175.013 47.3867 203.413 47.3333 231.8C42.36 231.787 37.4 231.787 32.4267 231.8C32.3467 203.387 32.6 174.973 32.2933 146.56C26.8133 146.533 21.32 146.533 15.84 146.56C15.8267 142.107 15.8267 137.653 15.8267 133.187Z" fill="white"/>
<path d="M73.5066 231.814C73.4933 198.934 73.4799 166.054 73.5066 133.174C83.1066 133.307 92.7066 132.96 102.307 133.374C109.147 133.707 116.413 136.774 119.627 143.174C123.8 151.494 123.68 161.267 122.76 170.32C122.08 177.48 118.373 184.507 111.8 187.894C116.36 202.614 121.533 217.147 126.36 231.787C121.173 231.8 115.987 231.787 110.787 231.8C106.467 218.254 102.2 204.694 97.8266 191.174C94.7066 191.12 91.5866 191.12 88.4666 191.147C88.2666 204.707 88.4266 218.254 88.3866 231.8C83.4266 231.787 78.4666 231.787 73.5066 231.814ZM88.4533 146.6C88.3199 156.894 88.3599 167.2 88.4266 177.494C94.5599 177.454 103.68 179.734 106.8 172.627C109.04 165.694 109.2 157.68 106.44 150.894C102.88 144.467 94.4133 147.04 88.4533 146.6Z" fill="white"/>
<path d="M136.76 133.187C141.773 133.187 146.773 133.173 151.773 133.213C151.773 166.067 151.773 198.92 151.773 231.773C146.773 231.8 141.76 231.8 136.76 231.8C136.773 198.92 136.76 166.053 136.76 133.187Z" fill="white"/>
<path d="M165.227 133.187C174.467 133.267 183.707 133.041 192.947 133.307C199.8 133.534 207.08 136.401 210.68 142.561C215.173 150.267 215.187 159.587 214.8 168.254C214.333 175.867 212.267 184.401 205.613 188.987C198.213 194.054 188.8 192.854 180.333 192.934C179.787 205.881 180.227 218.854 180.107 231.801C175.147 231.787 170.2 231.787 165.24 231.814C165.2 198.934 165.24 166.067 165.227 133.187ZM180.293 179.667C184.947 179.427 189.8 180.334 194.307 178.827C199.627 176.281 199.92 169.481 200.067 164.361C199.96 158.841 200.373 152.054 195.693 148.161C191.107 145.361 185.387 146.987 180.307 146.507C179.933 157.547 179.96 168.627 180.293 179.667Z" fill="white"/>
<path d="M227.187 133.187C231.867 133.187 236.547 133.187 241.227 133.187C241.213 156.76 241.227 180.347 241.227 203.92C236.547 203.893 231.867 203.893 227.2 203.947C227.173 180.36 227.2 156.773 227.187 133.187Z" fill="white"/>
<path d="M229.707 214.587C236.16 210.507 245.04 217.107 243.44 224.44C242.773 231.373 233.56 234.76 228.347 230.333C223.067 226.48 223.92 217.507 229.707 214.587Z" fill="white"/>
</g>
<defs>
<clipPath id="clip0_17441_16">
<rect width="252" height="249" fill="white"/>
</clipPath>
</defs>
</svg>
