<svg width="165" height="165" viewBox="0 0 165 165" fill="none" xmlns="http://www.w3.org/2000/svg">
<g clip-path="url(#clip0_17441_38)">
<path d="M39.9951 0H122.589C124.339 0.155187 126.117 -0.0228216 127.856 0.287552C132.029 0.476971 136.225 1.04066 140.213 2.33465C147.055 4.49585 153.187 8.82739 157.481 14.5716C160.301 18.2983 162.294 22.6207 163.425 27.1485C163.747 29.2139 164.264 31.2519 164.415 33.3423C164.908 37.1056 164.705 40.9214 165 44.6938V50.7141C162.015 50.4288 159.069 49.8149 156.101 49.4019C144.823 47.6492 133.547 45.8828 122.269 44.1255C120.845 43.8425 119.367 43.7855 117.975 43.3793C115.152 40.0108 111.903 36.9824 108.221 34.5656C93.451 24.75 72.97 24.499 57.9189 33.8512C57.5441 34.0521 57.0984 33.9357 56.6985 33.8992C38.496 31.0556 20.2911 28.2326 2.09082 25.3707C4.71437 16.5091 11.0767 8.83423 19.3176 4.62593C24.0047 2.17033 29.2404 0.883195 34.4989 0.474689C36.3295 0.308091 38.1714 0.244191 39.9951 0Z" fill="#FFB919"/>
<path d="M0.742676 31.7315C1.04205 29.584 1.46484 27.4479 2.09101 25.3711C20.2913 28.2329 38.4961 31.0559 56.6987 33.8995C57.0986 33.936 57.5443 34.0524 57.9191 33.8516C72.9702 24.4993 93.4512 24.7503 108.221 34.5659C111.903 36.9827 115.153 40.0111 117.975 43.3796C119.367 43.7858 120.845 43.8429 122.269 44.1259C133.547 45.8831 144.823 47.6495 156.101 49.4022C159.07 49.8153 162.015 50.4292 165 50.7145V50.8217C164.65 51.4037 164.847 52.0952 164.831 52.7319C164.826 54.1925 164.856 55.6553 164.822 57.1182C161.679 56.6754 158.544 56.1665 155.411 55.6713C154.385 55.523 153.368 55.2468 152.326 55.3404C142.515 53.8182 132.713 52.2184 122.891 50.7761C124.264 53.6813 125.519 56.6595 126.291 59.7906C128.069 66.491 127.923 73.552 126.762 80.3437C125.56 87.496 122.927 94.3356 119.632 100.769C115.15 100.671 110.557 100.602 106.26 102.068C102.615 103.225 99.3542 105.546 97.1306 108.658C94.4659 112.372 93.177 116.897 92.6902 121.393C92.4411 123.965 92.1623 126.537 92.1349 129.125C116.41 125.371 140.668 121.518 164.947 117.794C164.979 119.955 164.842 122.116 164.897 124.278C113.891 132.274 62.8759 140.2 11.8676 148.176C10.1262 148.414 8.40078 148.767 6.65022 148.945C5.48471 147.213 4.44489 145.394 3.60161 143.482C3.62218 143.388 3.66103 143.203 3.67931 143.11C11.5842 141.793 19.5166 140.634 27.4306 139.367C27.6912 139.296 27.9494 139.212 28.2031 139.118C38.8846 137.423 49.5754 135.786 60.2592 134.102C64.5054 133.479 68.7332 132.719 72.9885 132.169C73.0959 129.876 72.8216 127.591 72.6891 125.309C72.3874 121.215 71.9623 117.05 70.3695 113.22C68.8749 109.382 66.2102 105.934 62.6382 103.816C59.3382 101.828 55.4646 101.027 51.6596 100.778C49.5662 100.723 47.4706 100.732 45.375 100.762C43.0256 96.0815 40.9323 91.2433 39.5657 86.1769C37.7877 79.6248 36.9536 72.7555 37.6117 65.9821C38.6355 56.1232 43.229 46.6568 50.3958 39.792C50.4118 39.6962 50.4461 39.5045 50.4621 39.4064C35.059 37.0786 19.6765 34.6115 4.27806 32.2381C3.10341 32.0533 1.93104 31.8296 0.742676 31.7315ZM74.5219 34.2145C66.6558 35.6842 59.2354 39.6323 53.7849 45.5066C47.0067 52.6109 43.2953 62.5543 43.8781 72.3562C44.1889 79.958 46.152 87.4983 49.5 94.3288C53.0331 94.2786 56.5822 94.7076 59.9736 95.7118C63.8632 96.862 67.5403 98.8748 70.4129 101.757C73.8112 105.044 76.0896 109.35 77.4014 113.855C78.4869 117.326 78.7749 120.968 79.1268 124.565C79.2365 126.742 79.4308 128.91 79.4559 131.092C81.4967 130.804 83.5306 130.458 85.5691 130.161C85.6377 129.294 85.5851 128.42 85.7131 127.557C86.0719 122.728 86.3073 117.821 87.8247 113.179C89.1639 108.93 91.3784 104.886 94.6007 101.766C97.8367 98.5234 102.074 96.3964 106.505 95.3215C109.453 94.6254 112.481 94.2626 115.514 94.3356C116.544 92.4414 117.271 90.3943 118.021 88.3746C119.634 83.7236 120.747 78.8694 121.033 73.9491C121.529 68.8736 120.923 63.6931 119.287 58.8595C116.453 50.4337 110.422 43.1582 102.716 38.7263C94.2876 33.8288 84.0471 32.4001 74.5219 34.2145Z" fill="white"/>
<path opacity="0.36" d="M163.425 27.1484C164.211 29.5858 164.394 32.1669 164.675 34.7001C164.621 35.8823 164.865 37.0439 165 38.2123V44.6937C164.705 40.9213 164.908 37.1055 164.415 33.3422C164.264 31.2518 163.748 29.2138 163.425 27.1484Z" fill="#677A10"/>
<path d="M0.310803 37.1379C0.313089 35.3281 0.491343 33.5207 0.742729 31.7314C1.93109 31.8296 3.10346 32.0532 4.27812 32.2381C19.6766 34.6115 35.0591 37.0785 50.4621 39.4063C50.4461 39.5045 50.4118 39.6962 50.3958 39.792C43.2291 46.6568 38.6356 56.1231 37.6118 65.9821C36.9536 72.7555 37.7877 79.6248 39.5657 86.1769C40.9323 91.2433 43.0257 96.0814 45.375 100.762C47.4706 100.732 49.5663 100.723 51.6596 100.778C55.4647 101.027 59.3383 101.828 62.6383 103.816C66.2102 105.934 68.8749 109.382 70.3695 113.22C71.9624 117.05 72.3875 121.215 72.6891 125.309C72.8217 127.591 73.0959 129.876 72.9885 132.169C68.7332 132.719 64.5054 133.479 60.2593 134.102C49.5754 135.786 38.8847 137.423 28.2031 139.118C25.2619 139.417 22.3527 139.995 19.4252 140.417C15.0831 141.088 10.741 141.773 6.39661 142.448C5.37278 142.594 4.35582 142.845 3.31371 142.818C1.37805 138.215 0.521053 133.217 0.315374 128.248C-0.050277 125.437 0.100554 122.591 0 119.761V43.496C0.121122 41.3781 0.374792 39.2626 0.310803 37.1379Z" fill="#19AA1E"/>
<path d="M122.891 50.7764C132.713 52.2187 142.515 53.8185 152.325 55.3407C155.692 55.9865 159.101 56.4201 162.486 56.9816C163.322 57.139 164.2 57.1436 165 57.4677V124.184L164.902 124.501L164.897 124.278C164.842 122.117 164.979 119.955 164.947 117.794C140.668 121.519 116.409 125.371 92.1348 129.125C92.1622 126.537 92.441 123.965 92.6901 121.393C93.1769 116.897 94.4658 112.372 97.1305 108.659C99.3541 105.546 102.615 103.225 106.26 102.068C110.557 100.603 115.15 100.671 119.632 100.769C122.927 94.3359 125.56 87.4963 126.762 80.344C127.923 73.5523 128.069 66.4913 126.291 59.7909C125.519 56.6598 124.264 53.6816 122.891 50.7764Z" fill="#19AA1E"/>
<path d="M74.5219 34.2144C84.0471 32.4001 94.2876 33.8287 102.716 38.7262C110.422 43.1582 116.453 50.4337 119.287 58.8594C120.923 63.6931 121.529 68.8735 121.033 73.9491C120.747 78.8694 119.634 83.7235 118.021 88.3746C117.271 90.3943 116.544 92.4414 115.514 94.3356C112.481 94.2625 109.453 94.6254 106.505 95.3215C102.074 96.3964 97.8367 98.5233 94.6007 101.766C91.3784 104.886 89.1639 108.93 87.8247 113.179C86.3073 117.821 86.0719 122.728 85.7131 127.557C85.5851 128.42 85.6377 129.294 85.5691 130.161C83.5306 130.458 81.4967 130.804 79.4559 131.092C79.4308 128.91 79.2365 126.742 79.1268 124.565C78.7749 120.968 78.4869 117.326 77.4014 113.855C76.0896 109.35 73.8112 105.043 70.4129 101.757C67.5402 98.8748 63.8632 96.8619 59.9736 95.7117C56.5821 94.7076 53.0331 94.2785 49.4999 94.3287C46.152 87.4982 44.1889 79.958 43.8781 72.3561C43.2953 62.5543 47.0067 52.6109 53.7849 45.5065C59.2354 39.6323 66.6558 35.6841 74.5219 34.2144Z" fill="#0073FA"/>
<path opacity="0.49" d="M0 37.5439C0.0777008 37.4435 0.233103 37.2381 0.310803 37.1377C0.374792 39.2624 0.121122 41.3779 0 43.4958V37.5439Z" fill="#117314"/>
<path opacity="0.49" d="M29.6816 163.67C32.2823 163.985 34.8762 164.418 37.502 164.466C41.3733 164.752 45.2607 164.626 49.1388 164.654C68.1184 164.683 87.098 164.612 106.075 164.704C93.1152 164.779 80.1529 164.701 67.1906 164.727C57.5808 164.717 47.971 164.733 38.3613 164.67C35.4681 164.375 32.5154 164.387 29.6816 163.67Z" fill="#117314"/>
<path d="M164.83 52.7315C164.846 52.0947 164.65 51.4032 165 50.8213V57.4669C164.2 57.1429 163.322 57.1383 162.486 56.9808C159.101 56.4194 155.691 55.9858 152.325 55.34C153.367 55.2464 154.384 55.5225 155.41 55.6709C158.544 56.1661 161.679 56.675 164.821 57.1178C164.856 55.6549 164.826 54.192 164.83 52.7315Z" fill="#B3DBB9"/>
<path d="M19.425 140.417C22.3525 139.995 25.2617 139.417 28.2029 139.118C27.9492 139.212 27.691 139.296 27.4304 139.367C19.5164 140.634 11.584 141.793 3.67913 143.11C3.66085 143.203 3.62199 143.388 3.60143 143.482C3.50544 143.258 3.40717 143.039 3.31348 142.818C4.35558 142.845 5.37255 142.594 6.39637 142.448C10.7408 141.772 15.0829 141.088 19.425 140.417Z" fill="#B3DBB9"/>
<path d="M11.8678 148.176C62.8761 140.2 113.891 132.274 164.897 124.277L164.902 124.501C164.854 125.763 164.904 127.032 164.719 128.285C164.461 134.02 163.332 139.801 160.727 144.958C157.221 152.008 151.199 157.766 144.007 160.979C139.898 162.85 135.435 163.873 130.947 164.263C124.957 164.943 118.908 164.496 112.897 164.777C110.626 164.601 108.349 164.843 106.075 164.703C87.0982 164.612 68.1186 164.683 49.139 164.653C45.2608 164.626 41.3735 164.751 37.5022 164.466C34.8764 164.418 32.2825 163.985 29.6818 163.67C27.4399 163.247 25.23 162.647 23.0978 161.835C16.4681 159.352 10.6337 154.797 6.65039 148.945C8.40094 148.767 10.1264 148.413 11.8678 148.176Z" fill="#82D714"/>
</g>
<defs>
<clipPath id="clip0_17441_38">
<rect width="165" height="165" fill="white"/>
</clipPath>
</defs>
</svg>
