<svg width="36" height="35" viewBox="0 0 36 35" fill="none" xmlns="http://www.w3.org/2000/svg">
<g clip-path="url(#clip0_17377_11)">
<path d="M9.31716 0H26.837C27.2084 0.0329184 27.5855 -0.00484094 27.9544 0.0609958C28.8396 0.101176 29.7296 0.220747 30.5755 0.495228C32.0269 0.953665 33.3275 1.87248 34.2384 3.09094C34.8366 3.88147 35.2593 4.79834 35.4993 5.75878C35.5676 6.19689 35.6772 6.62918 35.7092 7.07261C35.8139 7.87089 35.7708 8.68029 35.8333 9.4805V10.7575C35.2002 10.697 34.5753 10.5668 33.9456 10.4792C31.5533 10.1074 29.1615 9.73271 26.7692 9.35996C26.4672 9.29993 26.1535 9.28783 25.8583 9.20166C25.2596 8.48714 24.5703 7.84474 23.7893 7.33209C20.6563 5.25 16.3118 5.19675 13.1192 7.18057C13.0397 7.22317 12.9451 7.19848 12.8603 7.19073C8.99916 6.58755 5.13752 5.98873 1.27686 5.38167C1.83337 3.50194 3.18295 1.87393 4.93101 0.981259C5.92526 0.460373 7.03586 0.187344 8.1513 0.100692C8.5396 0.0653527 8.93032 0.0517981 9.31716 0Z" fill="#FFB919"/>
<path d="M0.990845 6.73101C1.05435 6.27547 1.14403 5.82236 1.27686 5.38184C5.13752 5.98889 8.99916 6.58771 12.8603 7.1909C12.9451 7.19864 13.0397 7.22333 13.1192 7.18073C16.3118 5.19691 20.6563 5.25016 23.7893 7.33225C24.5703 7.84491 25.2596 8.4873 25.8583 9.20182C26.1535 9.28799 26.4672 9.30009 26.7692 9.36012C29.1615 9.73287 31.5533 10.1076 33.9456 10.4793C34.5753 10.567 35.2002 10.6972 35.8333 10.7577V10.7805C35.7591 10.9039 35.8008 11.0506 35.7974 11.1856C35.7965 11.4955 35.8028 11.8058 35.7955 12.1161C35.1289 12.0222 34.4638 11.9142 33.7992 11.8092C33.5816 11.7777 33.3658 11.7191 33.1448 11.739C31.0637 11.4161 28.9845 11.0767 26.901 10.7708C27.1924 11.387 27.4585 12.0188 27.6224 12.6829C27.9995 14.1042 27.9685 15.602 27.7222 17.0427C27.4672 18.5598 26.9088 20.0107 26.2098 21.3753C25.2591 21.3545 24.2848 21.34 23.3734 21.6508C22.6002 21.8962 21.9084 22.3885 21.4368 23.0488C20.8715 23.8365 20.5981 24.7964 20.4949 25.7501C20.442 26.2957 20.3829 26.8412 20.3771 27.3902C25.5262 26.5939 30.672 25.7767 35.8221 24.9867C35.8289 25.4451 35.7998 25.9036 35.8115 26.362C24.992 28.0583 14.1706 29.7395 3.35068 31.4314C2.98129 31.4818 2.61529 31.5568 2.24396 31.5946C1.99673 31.2271 1.77616 30.8413 1.59729 30.4356C1.60165 30.4158 1.60989 30.3766 1.61377 30.3567C3.29057 30.0774 4.97319 29.8315 6.65193 29.5628C6.70719 29.5478 6.76197 29.5299 6.81578 29.5101C9.08157 29.1504 11.3493 28.8033 13.6156 28.446C14.5163 28.3139 15.4131 28.1527 16.3157 28.036C16.3385 27.5495 16.2803 27.0649 16.2522 26.5808C16.1882 25.7123 16.098 24.8289 15.7602 24.0166C15.4431 23.2023 14.8779 22.4708 14.1202 22.0216C13.4202 21.6 12.5985 21.43 11.7914 21.3773C11.3474 21.3657 10.9028 21.3676 10.4583 21.3739C9.95996 20.381 9.51591 19.3547 9.22603 18.28C8.84888 16.8902 8.67194 15.4331 8.81155 13.9963C9.02873 11.905 10.0031 9.89698 11.5233 8.44083C11.5267 8.42049 11.534 8.37983 11.5374 8.35901C8.27007 7.86524 5.00712 7.34193 1.74078 6.83847C1.49161 6.79926 1.24292 6.75182 0.990845 6.73101ZM16.641 7.2577C14.9724 7.56946 13.3984 8.40694 12.2422 9.653C10.8044 11.16 10.0172 13.2692 10.1408 15.3484C10.2067 16.9609 10.6231 18.5603 11.3333 20.0092C12.0827 19.9986 12.8356 20.0896 13.555 20.3026C14.38 20.5466 15.16 20.9735 15.7694 21.5849C16.4902 22.282 16.9735 23.1955 17.2518 24.1511C17.4821 24.8874 17.5431 25.6601 17.6178 26.423C17.6411 26.8848 17.6823 27.3447 17.6876 27.8075C18.1205 27.7465 18.5519 27.6729 18.9843 27.61C18.9989 27.426 18.9877 27.2406 19.0149 27.0576C19.091 26.0333 19.1409 24.9925 19.4628 24.0078C19.7469 23.1065 20.2166 22.2486 20.9001 21.5869C21.5866 20.899 22.4853 20.4478 23.4253 20.2198C24.0506 20.0722 24.6929 19.9952 25.3362 20.0107C25.5548 19.6089 25.709 19.1746 25.868 18.7462C26.2102 17.7596 26.4463 16.73 26.5069 15.6863C26.6121 14.6096 26.4836 13.5107 26.1366 12.4854C25.5354 10.6982 24.2562 9.15487 22.6215 8.21475C20.8337 7.17589 18.6615 6.87285 16.641 7.2577Z" fill="white"/>
<path opacity="0.36" d="M35.4993 5.75879C35.6661 6.2758 35.7049 6.82331 35.7645 7.36066C35.7529 7.61142 35.8047 7.85782 35.8333 8.10568V9.4805C35.7708 8.6803 35.8139 7.87089 35.7092 7.07262C35.6772 6.62919 35.5677 6.19689 35.4993 5.75879Z" fill="#677A10"/>
<path d="M0.899241 7.87729C0.899726 7.4934 0.937537 7.11 0.990861 6.73047C1.24294 6.75128 1.49162 6.79873 1.74079 6.83794C5.00714 7.3414 8.27009 7.8647 11.5374 8.35848C11.534 8.37929 11.5267 8.41996 11.5233 8.44029C10.0031 9.89644 9.02874 11.9045 8.81157 13.9958C8.67196 15.4325 8.84889 16.8897 9.22604 18.2795C9.51593 19.3542 9.95998 20.3805 10.4583 21.3733C10.9028 21.3671 11.3474 21.3651 11.7914 21.3767C12.5985 21.4295 13.4202 21.5994 14.1202 22.0211C14.8779 22.4703 15.4431 23.2018 15.7602 24.016C16.0981 24.8283 16.1882 25.7118 16.2522 26.5803C16.2803 27.0644 16.3385 27.5489 16.3157 28.0355C15.4131 28.1521 14.5163 28.3133 13.6156 28.4455C11.3493 28.8027 9.08158 29.1498 6.81579 29.5095C6.1919 29.5729 5.57479 29.6954 4.95381 29.785C4.03276 29.9273 3.11171 30.0725 2.19017 30.2158C1.97299 30.2468 1.75727 30.3 1.53622 30.2942C1.12563 29.3178 0.943839 28.2576 0.90021 27.2038C0.822648 26.6074 0.854643 26.0037 0.833313 25.4034V9.22597C0.859006 8.77673 0.912814 8.32798 0.899241 7.87729Z" fill="#19AA1E"/>
<path d="M26.901 10.7705C28.9846 11.0765 31.0637 11.4158 33.1448 11.7387C33.8589 11.8757 34.5821 11.9677 35.3001 12.0868C35.4775 12.1202 35.6636 12.1211 35.8333 12.1899V26.3419L35.8125 26.4092L35.8115 26.3617C35.7999 25.9033 35.8289 25.4449 35.8222 24.9864C30.672 25.7765 25.5262 26.5936 20.3771 27.3899C20.3829 26.841 20.442 26.2954 20.4949 25.7498C20.5981 24.7962 20.8715 23.8362 21.4368 23.0486C21.9084 22.3883 22.6002 21.896 23.3734 21.6505C24.2848 21.3397 25.2591 21.3543 26.2098 21.3751C26.9088 20.0104 27.4672 18.5596 27.7222 17.0424C27.9685 15.6018 27.9995 14.104 27.6224 12.6827C27.4585 12.0185 27.1924 11.3868 26.901 10.7705Z" fill="#19AA1E"/>
<path d="M16.641 7.25713C18.6615 6.87228 20.8337 7.17532 22.6215 8.21418C24.2562 9.1543 25.5354 10.6976 26.1366 12.4849C26.4836 13.5102 26.6121 14.6091 26.5069 15.6857C26.4463 16.7294 26.2102 17.7591 25.868 18.7457C25.709 19.1741 25.5548 19.6083 25.3362 20.0101C24.6929 19.9946 24.0506 20.0716 23.4253 20.2192C22.4853 20.4472 21.5866 20.8984 20.9001 21.5863C20.2166 22.2481 19.7469 23.1059 19.4628 24.0073C19.1409 24.9919 19.091 26.0327 19.0149 27.0571C18.9877 27.24 18.9989 27.4255 18.9843 27.6094C18.5519 27.6723 18.1205 27.7459 17.6876 27.8069C17.6823 27.3441 17.6411 26.8842 17.6178 26.4224C17.5431 25.6595 17.4821 24.8869 17.2518 24.1506C16.9735 23.195 16.4902 22.2815 15.7694 21.5844C15.16 20.973 14.38 20.546 13.555 20.302C12.8356 20.089 12.0827 19.998 11.3333 20.0087C10.6231 18.5598 10.2067 16.9603 10.1408 15.3478C10.0172 13.2686 10.8044 11.1594 12.2422 9.65243C13.3984 8.40637 14.9724 7.56889 16.641 7.25713Z" fill="#0073FA"/>
<path opacity="0.49" d="M0.833313 7.9641C0.849795 7.9428 0.882759 7.89923 0.899241 7.87793C0.912814 8.32862 0.859006 8.77738 0.833313 9.22662V7.9641Z" fill="#117314"/>
<path opacity="0.49" d="M7.12946 34.7178C7.68112 34.7846 8.23133 34.8766 8.78832 34.8867C9.60951 34.9472 10.4341 34.9206 11.2567 34.9264C15.2827 34.9327 19.3087 34.9177 23.3342 34.9371C20.5851 34.953 17.8355 34.9366 15.0859 34.9419C13.0475 34.94 11.009 34.9434 8.97059 34.9298C8.35688 34.8674 7.73056 34.8698 7.12946 34.7178Z" fill="#117314"/>
<path d="M35.7974 11.1855C35.8008 11.0504 35.7591 10.9037 35.8333 10.7803V12.19C35.6636 12.1212 35.4775 12.1202 35.3 12.0868C34.5821 11.9678 33.8588 11.8758 33.1448 11.7388C33.3658 11.7189 33.5815 11.7775 33.7992 11.809C34.4638 11.914 35.1289 12.022 35.7955 12.1159C35.8027 11.8056 35.7964 11.4953 35.7974 11.1855Z" fill="#B3DBB9"/>
<path d="M4.95378 29.7852C5.57477 29.6957 6.19187 29.5732 6.81577 29.5098C6.76196 29.5296 6.70718 29.5475 6.65191 29.5625C4.97317 29.8312 3.29056 30.0771 1.61376 30.3564C1.60988 30.3763 1.60164 30.4155 1.59727 30.4354C1.57691 30.3879 1.55607 30.3414 1.53619 30.2945C1.75725 30.3003 1.97297 30.247 2.19014 30.2161C3.11168 30.0728 4.03273 29.9275 4.95378 29.7852Z" fill="#B3DBB9"/>
<path d="M3.35068 31.4317C14.1706 29.7398 24.992 28.0586 35.8115 26.3623L35.8125 26.4097C35.8023 26.6774 35.8129 26.9466 35.7737 27.2124C35.7189 28.4289 35.4794 29.6551 34.9268 30.7492C34.1832 32.2445 32.9058 33.4659 31.3802 34.1475C30.5086 34.5445 29.5619 34.7613 28.6098 34.8441C27.3393 34.9884 26.0561 34.8935 24.7811 34.953C24.2993 34.9158 23.8165 34.9671 23.3341 34.9375C19.3086 34.9182 15.2827 34.9332 11.2567 34.9269C10.4341 34.9211 9.60947 34.9477 8.78828 34.8872C8.23128 34.877 7.68108 34.7851 7.12942 34.7183C6.65386 34.6287 6.18509 34.5014 5.73281 34.329C4.32651 33.8023 3.0889 32.8361 2.24396 31.5949C2.61529 31.5571 2.98128 31.4821 3.35068 31.4317Z" fill="#82D714"/>
</g>
<defs>
<clipPath id="clip0_17377_11">
<rect width="35" height="35" fill="white" transform="translate(0.833313)"/>
</clipPath>
</defs>
</svg>
